# xmcd
#
# Track frame offsets:
#	150
#	22987
#	38272
#	53105
#	65742
#	87480
#	105729
#	122917
#	142317
#	158977
#	179015
#	195015
#
# Disc length: 2757 seconds
#
# Revision: 1
# Processed by: cddbd v1.4PL0 Copyright (c) Steve Scherf et al.
# Submitted via: audiograbber 1.82.02
#
DISCID=a40ac30c
DTITLE=Richard Clayderman - A Little Night Music
DYEAR=1999
DGENRE=Blues
TTITLE0=Nights In White Satin
TTITLE1=Sailing
TTITLE2=Nothing's Gonna Change My Love For You
TTITLE3=Careless Whisper
TTITLE4=I'm Not In Love
TTITLE5=The Power of Love
TTITLE6=Without You
TTITLE7=For All We Know - We've Only Just Begun
TTITLE8=I Just Called To Say I Love You
TTITLE9=A Whiter Shade Of Pale
TTITLE10=Just The Way You Are
TTITLE11=Princess Of The Night
EXTD=
EXTT0=
EXTT1=
EXTT2=
EXTT3=
EXTT4=
EXTT5=
EXTT6=
EXTT7=
EXTT8=
EXTT9=
EXTT10=
EXTT11=
PLAYORDER=
